#!OML:ASF E:\Steps\Project 1\Capture day 1\Session 2\Subject.ASF
:FULLY-SPECIFIED
:DEGREES
786
root 8.94533 22.6763 -13.9371 -155.246 3.30435 177.938
lowerback -28.2811 -3.0078 -6.07967
upperback -0.616786 -1.48748 0.287115
thorax 14.5149 -0.869322 3.11513
lowerneck -0.349402 -1.97532 -3.12656
upperneck 14.3278 -2.45145 5.65168
head 4.44311 -0.753844 2.18477
rclavicle -4.02539e-015 1.03368e-014
rhumerus -43.9967 -19.2192 -73.4575
rradius 30.3526
rwrist -0.473504
rhand -9.56514 -47.7084
rfingers 7.12502
rthumb 16.4024 -77.0349
lclavicle -4.02539e-015 1.03368e-014
lhumerus -34.2496 4.16088 81.7689
lradius 27.1821
lwrist -1.42526
lhand -18.4307 -12.8796
lfingers 7.12502
lthumb 7.85464 16.9545
rfemur -27.3873 9.96739 14.0545
rtibia 12.2163
rfoot -17.0475 -5.59588
rtoes -30.3839
lfemur -23.9054 -7.32876 -23.2538
ltibia 9.54163
lfoot -7.01363 -1.80965
ltoes -28.6529
787
root 8.95139 22.6707 -13.9662 -155.132 2.93111 178.148
lowerback -28.471 -2.93873 -5.73104
upperback -0.571156 -1.50291 0.31767
thorax 14.6529 -0.858353 2.94919
lowerneck -0.401013 -1.88396 -3.33646
upperneck 13.48 -2.40496 6.01284
head 4.1967 -0.763765 2.32575
rclavicle -9.91439e-015 -1.70955e-014
rhumerus -43.691 -19.4706 -73.5006
rradius 30.3422
rwrist -0.402064
rhand -9.95243 -47.0398
rfingers 7.12502
rthumb 16.0295 -76.3966
lclavicle -9.91439e-015 -1.70955e-014
lhumerus -34.0424 3.7368 82.0524
lradius 26.9325
lwrist -1.28625
lhand -18.4874 -12.6958
lfingers 7.12502
lthumb 7.79997 17.1403
rfemur -27.0779 9.69242 14.4787
rtibia 11.81
rfoot -17.0613 -5.50797
rtoes -30.2772
lfemur -23.906 -7.40286 -22.9763
ltibia 9.55998
lfoot -6.96312 -1.91622
ltoes -27.926
788
root 8.95623 22.6678 -13.993 -155.159 2.55893 178.308
lowerback -28.5196 -2.93367 -5.43408
upperback -0.608716 -1.59018 0.346317
thorax 14.6349 -0.874075 2.78456
lowerneck -0.500544 -1.84524 -2.94913
upperneck 12.7427 -2.31055 5.3886
head 4.42841 -0.77151 2.2872
rclavicle -8.44835e-016 -1.07344e-014
rhumerus -43.2754 -19.6644 -73.5456
rradius 30.1124
rwrist -0.325154
rhand -10.0282 -47.6656
rfingers 7.12502
rthumb 15.9564 -77.0284
lclavicle -8.44835e-016 -1.07344e-014
lhumerus -33.9521 3.15479 82.328
lradius 26.4418
lwrist -0.911374
lhand -18.5163 -12.8561
lfingers 7.12502
lthumb 7.77205 16.9811
rfemur -26.6516 9.3297 14.8794
rtibia 11.4571
rfoot -17.2902 -5.42148
rtoes -30.7825
lfemur -23.7388 -7.5728 -22.7407
ltibia 9.56109
lfoot -6.99873 -2.00539
ltoes -26.643
789
root 8.9663 22.6678 -14.0167 -155.244 2.2128 178.327
lowerback -28.4803 -2.92418 -5.40179
upperback -0.656993 -1.59447 0.399568
thorax 14.5623 -0.870826 2.8249
lowerneck -0.457802 -1.85239 -2.76146
upperneck 12.2686 -2.31936 5.02328
head 4.23458 -0.80672 2.11639
rclavicle 1.80894e-014 -2.98177e-015
rhumerus -43.0351 -19.6748 -73.5617
rradius 30.3134
rwrist -0.601998
rhand -9.75906 -49.0001
rfingers 7.12502
rthumb 16.2157 -78.3419
lclavicle 1.80894e-014 -2.98177e-015
lhumerus -33.991 2.46511 82.7347
lradius 26.1459
lwrist -0.689839
lhand -18.194 -12.7849
lfingers 7.12502
lthumb 8.08313 17.0405
rfemur -26.2134 9.09084 15.0802
rtibia 11.1256
rfoot -16.9952 -5.36759
rtoes -29.7022
lfemur -23.6156 -7.81013 -22.613
ltibia 9.69954
lfoot -7.14293 -2.08558
ltoes -26.9283
790
root 8.98338 22.6679 -14.0423 -155.241 2.01797 178.27
lowerback -28.5064 -2.98784 -5.56479
upperback -0.751938 -1.61566 0.447667
thorax 14.4719 -0.88185 2.95883
lowerneck -0.329687 -1.82552 -2.74061
upperneck 11.6678 -2.30904 4.99903
head 3.99173 -0.827343 2.09457
rclavicle 5.91384e-015 1.88845e-014
rhumerus -42.9015 -19.5037 -73.5977
rradius 30.4335
rwrist -0.79202
rhand -9.65392 -49.1242
rfingers 7.12502
rthumb 16.3169 -78.4577
lclavicle 5.91384e-015 1.88845e-014
lhumerus -34.2202 2.1501 82.9552
lradius 25.9602
lwrist -0.789022
lhand -18.0707 -12.8756
lfingers 7.12502
lthumb 8.20208 16.9452
rfemur -25.8951 9.15017 15.077
rtibia 10.7241
rfoot -17.1353 -5.55214
rtoes -29.8687
lfemur -23.5846 -7.87913 -22.5718
ltibia 9.76042
lfoot -7.22088 -2.14816
ltoes -28.4109
791
root 8.99113 22.667 -14.065 -155.273 1.72093 178.28
lowerback -28.4385 -3.07018 -5.48693
upperback -0.883626 -1.74468 0.485213
thorax 14.2993 -0.921543 2.91045
lowerneck 0.0323902 -1.8226 -3.00548
upperneck 11.0503 -2.33695 5.25725
head 3.71583 -0.865431 2.22101
rclavicle 2.73329e-015 8.54774e-015
rhumerus -42.6265 -19.3024 -73.6365
rradius 30.1492
rwrist -0.963295
rhand -9.61097 -48.8225
rfingers 7.12502
rthumb 16.3582 -78.1526
lclavicle 2.73329e-015 8.54774e-015
lhumerus -34.4773 2.15443 83.0375
lradius 25.7319
lwrist -1.10035
lhand -18.2433 -13.0237
lfingers 7.12502
lthumb 8.03548 16.8035
rfemur -25.4638 8.99982 15.2163
rtibia 10.2664
rfoot -16.8809 -5.62609
rtoes -29.2261
lfemur -23.4535 -8.00164 -22.5114
ltibia 9.7335
lfoot -7.22626 -2.27103
ltoes -28.173
792
root 9.00381 22.6672 -14.0865 -155.347 1.63558 178.168
lowerback -28.3126 -3.09774 -5.59632
upperback -1.02999 -1.72834 0.433256
thorax 14.0706 -0.903035 2.92474
lowerneck 2.99933 -1.21974 -4.87247
upperneck 7.53588 -1.70519 7.95323
head 2.0244 -0.656607 3.46165
rclavicle 5.19325e-015 1.98785e-015
rhumerus -42.8421 -19.3799 -73.6454
rradius 30.6541
rwrist -1.13175
rhand -9.48069 -49.2367
rfingers 7.12502
rthumb 16.4837 -78.5565
lclavicle 5.19325e-015 1.98785e-015
lhumerus -34.6623 1.86925 83.1482
lradius 25.4177
lwrist -1.31217
lhand -18.2284 -12.7514
lfingers 7.12502
lthumb 8.04994 17.0753
rfemur -25.1667 9.17081 15.1032
rtibia 10.0165
rfoot -16.8152 -5.934
rtoes -29.1289
lfemur -23.2834 -8.18018 -22.5342
ltibia 9.69091
lfoot -7.27875 -2.23271
ltoes -26.7913
793
root 9.01164 22.6663 -14.1039 -155.414 1.49492 178.106
lowerback -28.1783 -3.0419 -5.58871
upperback -1.1883 -1.63605 0.353923
thorax 13.8141 -0.840464 2.87541
lowerneck 4.2042 -1.02997 -5.4035
upperneck 5.87532 -1.48874 8.72166
head 1.26636 -0.611914 3.82177
rclavicle 9.88954e-015 -1.59028e-015
rhumerus -43.0712 -19.4768 -73.6461
rradius 31.018
rwrist -1.45603
rhand -9.66589 -49.3274
rfingers 7.12502
rthumb 16.3054 -78.6619
lclavicle 9.88954e-015 -1.59028e-015
lhumerus -34.7981 1.55395 83.2237
lradius 24.972
lwrist -1.76025
lhand -17.9052 -12.4979
lfingers 7.12502
lthumb 8.36178 17.3166
rfemur -24.8719 9.07339 15.1279
rtibia 9.8126
rfoot -16.813 -5.96531
rtoes -29.0112
lfemur -23.1261 -8.34802 -22.5453
ltibia 9.6576
lfoot -7.33731 -2.27277
ltoes -26.2085
794
root 9.02242 22.6641 -14.126 -155.423 1.38153 178.134
lowerback -28.2606 -2.9753 -5.58296
upperback -1.18546 -1.5375 0.331447
thorax 13.8458 -0.79408 2.8844
lowerneck 3.52302 -1.1858 -4.91283
upperneck 6.0402 -1.67583 8.13515
head 1.44049 -0.695813 3.51799
rclavicle 5.71506e-015 8.15017e-015
rhumerus -42.9559 -19.5969 -73.6827
rradius 31.1921
rwrist -1.78801
rhand -9.7506 -48.9714
rfingers 7.12502
rthumb 16.2238 -78.3126
lclavicle 5.71506e-015 8.15017e-015
lhumerus -34.6561 1.76211 83.145
lradius 24.5881
lwrist -2.67388
lhand -17.4567 -12.2285
lfingers 7.12502
lthumb 8.79467 17.5682
rfemur -24.6191 8.99751 15.2445
rtibia 9.55673
rfoot -16.8053 -5.85997
rtoes -28.4282
lfemur -23.0119 -8.46442 -22.4478
ltibia 9.60513
lfoot -7.38902 -2.23558
ltoes -26.8791
795
root 9.03177 22.6633 -14.146 -155.341 1.19798 178.172
lowerback -28.3393 -2.93376 -5.51721
upperback -1.20894 -1.48986 0.31949
thorax 13.8494 -0.764359 2.85329
lowerneck 2.79795 -1.41568 -4.35549
upperneck 6.08677 -1.9636 7.37842
head 1.58334 -0.838689 3.14442
rclavicle 1.15544e-014 -7.95139e-016
rhumerus -42.7253 -19.7868 -73.709
rradius 31.3087
rwrist -2.03719
rhand -9.56506 -48.9787
rfingers 7.12502
rthumb 16.4024 -78.3051
lclavicle 1.15544e-014 -7.95139e-016
lhumerus -34.4657 1.97888 83.0929
lradius 24.2082
lwrist -3.44909
lhand -17.2583 -11.9974
lfingers 7.12502
lthumb 8.98608 17.7912
rfemur -24.524 8.63411 15.4177
rtibia 9.39967
rfoot -16.8423 -5.45412
rtoes -27.3433
lfemur -23.0464 -8.63162 -22.3173
ltibia 9.67234
lfoot -7.48928 -2.18748
ltoes -27.2232
